<?xml version="1.0" encoding="utf-8"?>
<!-- Generator: Adobe Illustrator 27.3.1, SVG Export Plug-In . SVG Version: 6.00 Build 0)  -->
<svg version="1.1" id="Layer_1" xmlns="http://www.w3.org/2000/svg" xmlns:xlink="http://www.w3.org/1999/xlink" x="0px" y="0px"
	 viewBox="0 0 1200 1200" style="enable-background:new 0 0 1200 1200;" xml:space="preserve">
<style type="text/css">
	.st0{fill:#8EC63F;}
	.st1{fill:#00652F;}
</style>
<g>
	<rect x="416" y="437.5" class="st0" width="100.1" height="100.1"/>
	<rect x="354.1" y="375.7" class="st1" width="61.8" height="61.8"/>
	<rect x="416" y="337.4" class="st0" width="38.2" height="38.2"/>
	<polygon class="st1" points="678.1,537.7 516,699.8 516,861.7 354.1,861.7 354.1,699.8 516,537.9 	"/>
	<path class="st1" d="M674.9,699.8h162c-4.3,22.5-13.2,43.9-26.7,62.7c-0.1,0.2-0.3,0.4-0.4,0.5c-29.6,40.9-67.9,69.5-114.8,85.5
		c-9.9,3.4-20.2,6.2-30.9,8.4c-23.6,5-47.7,5.8-71.9,3.5c-13.2-1.2-26.1-3.5-38.8-6.7C616,826.4,662.6,769,674.9,699.8z"/>
	<path class="st1" d="M878.5,471.3h-38.7v197c0,10.4-1,20.7-2.8,30.8L678.1,537.7v-66.5h-38.7l119.6-133.8L878.5,471.3z"/>
</g>
</svg>
