<svg width="188" height="44" viewBox="0 0 188 44" fill="none" xmlns="http://www.w3.org/2000/svg">
<g clip-path="url(#clip0_54661_1180)">
<path d="M71.5172 9.01729C73.5515 10.0838 75.1225 11.6021 76.2344 13.572C77.3443 15.542 77.9002 17.8277 77.9002 20.4314C77.9002 23.035 77.3443 25.3207 76.2344 27.2907C75.1246 29.2606 73.5515 30.7789 71.5172 31.8454C69.4828 32.912 67.1179 33.4431 64.4223 33.4431H53.6779V7.41748H64.4223C67.1179 7.41748 69.4828 7.95075 71.5172 9.0152V9.01729ZM69.7398 26.0443C71.0876 24.6557 71.7615 22.7861 71.7615 20.4314C71.7615 18.8692 71.4561 17.5141 70.8433 16.3618C70.2304 15.2095 69.3712 14.3165 68.2593 13.685C67.1495 13.0534 65.8691 12.7376 64.4223 12.7376H59.8167V28.1293H64.4223C66.6188 28.1293 68.3899 27.435 69.7377 26.0485L69.7398 26.0443Z" fill="white"/>
<path d="M87.0736 15.0757H81.196V33.4411H87.0736V15.0757Z" fill="white"/>
<path d="M109.778 32.7907C110.464 33.7945 110.807 34.9531 110.807 36.2664C110.807 37.8035 110.382 39.1607 109.535 40.3381C108.687 41.5155 107.488 42.421 105.941 43.0525C104.393 43.6841 102.596 43.9999 100.549 43.9999C98.5025 43.9999 96.8051 43.6778 95.3078 43.0337C93.8105 42.3896 92.6564 41.4715 91.8456 40.2837C91.0349 39.0938 90.6284 37.7177 90.6284 36.1577C90.6284 35.7603 90.6411 35.4634 90.6663 35.2647H96.3186C96.2681 36.4797 96.6113 37.4208 97.3484 38.09C98.0834 38.7592 99.1511 39.0938 100.549 39.0938C101.796 39.0938 102.807 38.8156 103.582 38.2573C104.355 37.6989 104.742 36.9628 104.742 36.0447C104.742 35.1267 104.386 34.378 103.675 33.8698C102.963 33.3617 101.946 33.1086 100.623 33.1086C98.5762 33.1086 96.7861 32.7238 95.2509 31.9563C93.7157 31.1888 92.5301 30.1035 91.694 28.7044C90.858 27.3054 90.4389 25.6742 90.4389 23.8151C90.4389 21.956 90.8685 20.4377 91.7298 19.0387C92.5911 17.6396 93.7894 16.548 95.3225 15.7679C96.8577 14.9879 98.6099 14.5968 100.583 14.5968C102.106 14.5968 103.504 14.8938 104.776 15.4898L106.947 12.813L111.252 15.8976L108.781 18.7605C110.028 20.1742 110.654 21.8598 110.654 23.8172C110.654 25.1807 110.323 26.4375 109.662 27.5898C109 28.7421 108.072 29.6894 106.874 30.4339C108.12 31.0048 109.089 31.7911 109.775 32.7949L109.778 32.7907ZM103.731 26.9729C104.53 26.1803 104.93 25.1263 104.93 23.813C104.93 22.4997 104.536 21.452 103.75 20.6719C102.965 19.8919 101.91 19.5008 100.587 19.5008C99.2648 19.5008 98.2413 19.8919 97.4432 20.6719C96.645 21.452 96.2449 22.4997 96.2449 23.813C96.2449 25.1263 96.6429 26.1489 97.4432 26.9541C98.2413 27.7592 99.2901 28.1628 100.587 28.1628C101.885 28.1628 102.933 27.7675 103.731 26.9729Z" fill="white"/>
<path d="M120.354 15.0757H114.476V33.4411H120.354V15.0757Z" fill="white"/>
<path d="M137.649 15.0757H144.014L132.484 41.3962H126.231L129.824 33.1797L122.636 15.0757H128.963L131.096 20.8747L133.118 26.8599L135.289 20.8747L137.647 15.0757H137.649Z" fill="white"/>
<path d="M149.31 32.642C147.775 31.8368 146.595 30.7159 145.772 29.2771C144.949 27.8404 144.536 26.1674 144.536 24.2581C144.536 22.3488 144.949 20.6779 145.772 19.2391C146.595 17.8024 147.775 16.6794 149.31 15.8743C150.845 15.0691 152.635 14.6655 154.682 14.6655C156.729 14.6655 158.526 15.0691 160.073 15.8743C161.621 16.6794 162.807 17.8024 163.63 19.2391C164.454 20.6758 164.866 22.3488 164.866 24.2581C164.866 26.1674 164.454 27.8404 163.63 29.2771C162.807 30.7138 161.621 31.8368 160.073 32.642C158.526 33.4471 156.729 33.8507 154.682 33.8507C152.635 33.8507 150.845 33.4471 149.31 32.642ZM157.826 27.6041C158.624 26.7363 159.025 25.6216 159.025 24.2581C159.025 22.8946 158.624 21.78 157.826 20.9121C157.028 20.0442 155.979 19.6113 154.682 19.6113C153.385 19.6113 152.374 20.0442 151.576 20.9121C150.778 21.78 150.378 22.8946 150.378 24.2581C150.378 25.6216 150.776 26.7363 151.576 27.6041C152.374 28.472 153.41 28.9049 154.682 28.9049C155.954 28.9049 157.028 28.472 157.826 27.6041Z" fill="white"/>
<path d="M186.522 32.7907C187.208 33.7945 187.551 34.9531 187.551 36.2664C187.551 37.8035 187.126 39.1607 186.279 40.3381C185.431 41.5155 184.233 42.421 182.685 43.0525C181.137 43.6841 179.34 43.9999 177.293 43.9999C175.247 43.9999 173.549 43.6778 172.052 43.0337C170.555 42.3896 169.4 41.4715 168.59 40.2837C167.779 39.0938 167.372 37.7177 167.372 36.1577C167.372 35.7603 167.385 35.4634 167.41 35.2647H173.063C173.012 36.4797 173.355 37.4208 174.092 38.09C174.827 38.7592 175.895 39.0938 177.293 39.0938C178.54 39.0938 179.551 38.8156 180.326 38.2573C181.099 37.6989 181.486 36.9628 181.486 36.0447C181.486 35.1267 181.13 34.378 180.419 33.8698C179.707 33.3617 178.69 33.1086 177.367 33.1086C175.32 33.1086 173.53 32.7238 171.995 31.9563C170.46 31.1888 169.274 30.1035 168.438 28.7044C167.602 27.3054 167.183 25.6742 167.183 23.8151C167.183 21.956 167.613 20.4377 168.474 19.0387C169.335 17.6396 170.533 16.548 172.067 15.7679C173.602 14.9879 175.354 14.5968 177.327 14.5968C178.85 14.5968 180.248 14.8938 181.52 15.4898L183.691 12.813L187.996 15.8976L185.526 18.7605C186.772 20.1742 187.398 21.8598 187.398 23.8172C187.398 25.1807 187.067 26.4375 186.406 27.5898C185.745 28.7421 184.816 29.6894 183.618 30.4339C184.864 31.0048 185.833 31.7911 186.52 32.7949L186.522 32.7907ZM180.476 26.9729C181.274 26.1803 181.674 25.1263 181.674 23.813C181.674 22.4997 181.28 21.452 180.494 20.6719C179.709 19.8919 178.654 19.5008 177.331 19.5008C176.009 19.5008 174.985 19.8919 174.187 20.6719C173.389 21.452 172.989 22.4997 172.989 23.813C172.989 25.1263 173.387 26.1489 174.187 26.9541C174.985 27.7592 176.034 28.1628 177.331 28.1628C178.629 28.1628 179.677 27.7675 180.476 26.9729Z" fill="white"/>
<path d="M87.0736 7.41748V13.2521L87.0694 13.2542H81.196V7.41748H87.0736Z" fill="white"/>
<path d="M120.354 7.41748V13.2521L120.351 13.2542H114.476V7.41748H120.354Z" fill="white"/>
<path d="M12.8103 7.85889H4.89838V15.7178H12.8103V7.85889Z" fill="white"/>
<path d="M4.88995 3.00098H0V7.85687H4.88995V3.00098Z" fill="white"/>
<path d="M7.92038 0H4.89838V3.00095H7.92038V0Z" fill="white"/>
<path d="M25.6186 15.7285L12.7998 28.4559V41.1707H0V28.4559L12.7998 15.7452L25.6186 15.7285Z" fill="white"/>
<path d="M25.3658 28.4557H38.1762C37.8371 30.2207 37.1295 31.9063 36.066 33.3827C36.0555 33.3973 36.045 33.412 36.0345 33.4245C33.6948 36.6367 30.6622 38.8806 26.9537 40.1375C26.1682 40.4072 25.3532 40.6226 24.5087 40.8004C22.6429 41.1977 20.737 41.2563 18.8249 41.0743C17.7824 40.9823 16.761 40.8004 15.7544 40.5453C20.7118 38.3996 24.395 33.8909 25.3637 28.4536L25.3658 28.4557Z" fill="white"/>
<path d="M41.472 10.5086H38.412V25.9797C38.412 26.7952 38.3362 27.6025 38.1888 28.3971L25.6207 15.7283V10.5086H22.5608L32.0164 0L41.472 10.5086Z" fill="white"/>
</g>
<defs>
<clipPath id="clip0_54661_1180">
<rect width="188" height="44" fill="white"/>
</clipPath>
</defs>
</svg>
